# xmcd CD database file
#
# Track frame offsets:
#	150
#	20680
#	35575
#
# Disc length: 725 seconds
#
# Revision: 0
# Processed by: cddbd v1.5PL3 Copyright (c) Steve Scherf et al.
# Submitted via: CDex 1.50
#
DISCID=1f02d303
DTITLE=山本正之 - 夕焼けの町
DYEAR=1996
DGENRE=JPop
TTITLE0=夕焼けの町
TTITLE1=錦町小学校１年さくら組
TTITLE2=菜の花
EXTD=YEAR: 1996
EXTT0=
EXTT1=
EXTT2=
PLAYORDER=
